<mxfile host="app.diagrams.net" agent="Mozilla/5.0 (Windows NT 10.0; Win64; x64) AppleWebKit/537.36 (KHTML, like Gecko) Chrome/122.0.0.0 Safari/537.36" version="24.8.6">
  <diagram name="Option 4" id="cd6HidMPWzCVq3saGzCR">
    <mxGraphModel dx="1500" dy="1965" grid="1" gridSize="10" guides="1" tooltips="1" connect="1" arrows="1" fold="1" page="1" pageScale="1" pageWidth="827" pageHeight="1169" math="0" shadow="0">
      <root>
        <mxCell id="0" />
        <mxCell id="1" parent="0" />
        <mxCell id="iP4ohvnQGioM_d5yrYZg-2" value="" style="edgeStyle=orthogonalEdgeStyle;rounded=0;orthogonalLoop=1;jettySize=auto;html=1;" parent="1" source="G0kwRpXOu8s8iO1yLka8-1" target="G0kwRpXOu8s8iO1yLka8-3" edge="1">
          <mxGeometry relative="1" as="geometry">
            <Array as="points">
              <mxPoint x="320" y="360" />
              <mxPoint x="320" y="360" />
            </Array>
          </mxGeometry>
        </mxCell>
        <mxCell id="G0kwRpXOu8s8iO1yLka8-1" value="" style="sketch=0;outlineConnect=0;fontColor=#232F3E;gradientColor=none;fillColor=#3F8624;strokeColor=none;dashed=0;verticalLabelPosition=bottom;verticalAlign=top;align=center;html=1;fontSize=12;fontStyle=0;aspect=fixed;pointerEvents=1;shape=mxgraph.aws4.bucket;" parent="1" vertex="1">
          <mxGeometry x="170" y="324" width="67.31" height="70" as="geometry" />
        </mxCell>
        <mxCell id="iP4ohvnQGioM_d5yrYZg-1" value="" style="edgeStyle=orthogonalEdgeStyle;rounded=0;orthogonalLoop=1;jettySize=auto;html=1;" parent="1" source="G0kwRpXOu8s8iO1yLka8-2" target="G0kwRpXOu8s8iO1yLka8-1" edge="1">
          <mxGeometry relative="1" as="geometry" />
        </mxCell>
        <mxCell id="G0kwRpXOu8s8iO1yLka8-2" value="csv file" style="shape=tape;whiteSpace=wrap;html=1;" parent="1" vertex="1">
          <mxGeometry y="316.5" width="100" height="85" as="geometry" />
        </mxCell>
        <mxCell id="0OWH2VblTp7emqvLC9ex-4" value="" style="edgeStyle=orthogonalEdgeStyle;rounded=0;orthogonalLoop=1;jettySize=auto;html=1;" parent="1" source="G0kwRpXOu8s8iO1yLka8-3" target="0OWH2VblTp7emqvLC9ex-3" edge="1">
          <mxGeometry relative="1" as="geometry" />
        </mxCell>
        <mxCell id="G0kwRpXOu8s8iO1yLka8-3" value="Lambda to glue crawler" style="sketch=0;outlineConnect=0;fontColor=#232F3E;gradientColor=none;strokeColor=#ffffff;fillColor=#232F3E;dashed=0;verticalLabelPosition=middle;verticalAlign=bottom;align=center;html=1;whiteSpace=wrap;fontSize=10;fontStyle=1;spacing=3;shape=mxgraph.aws4.productIcon;prIcon=mxgraph.aws4.lambda;" parent="1" vertex="1">
          <mxGeometry x="299" y="319" width="70" height="105" as="geometry" />
        </mxCell>
        <mxCell id="iP4ohvnQGioM_d5yrYZg-9" value="" style="edgeStyle=orthogonalEdgeStyle;rounded=0;orthogonalLoop=1;jettySize=auto;html=1;" parent="1" source="G0kwRpXOu8s8iO1yLka8-4" target="G0kwRpXOu8s8iO1yLka8-25" edge="1">
          <mxGeometry relative="1" as="geometry">
            <Array as="points">
              <mxPoint x="490" y="260" />
              <mxPoint x="490" y="260" />
            </Array>
          </mxGeometry>
        </mxCell>
        <mxCell id="G0kwRpXOu8s8iO1yLka8-4" value="" style="sketch=0;points=[[0,0,0],[0.25,0,0],[0.5,0,0],[0.75,0,0],[1,0,0],[0,1,0],[0.25,1,0],[0.5,1,0],[0.75,1,0],[1,1,0],[0,0.25,0],[0,0.5,0],[0,0.75,0],[1,0.25,0],[1,0.5,0],[1,0.75,0]];outlineConnect=0;fontColor=#232F3E;gradientColor=#945DF2;gradientDirection=north;fillColor=#5A30B5;strokeColor=#ffffff;dashed=0;verticalLabelPosition=bottom;verticalAlign=top;align=center;html=1;fontSize=12;fontStyle=0;aspect=fixed;shape=mxgraph.aws4.resourceIcon;resIcon=mxgraph.aws4.glue;" parent="1" vertex="1">
          <mxGeometry x="453" y="310" width="74" height="74" as="geometry" />
        </mxCell>
        <mxCell id="iP4ohvnQGioM_d5yrYZg-45" value="" style="edgeStyle=orthogonalEdgeStyle;rounded=0;orthogonalLoop=1;jettySize=auto;html=1;" parent="1" source="0OWH2VblTp7emqvLC9ex-1" target="G0kwRpXOu8s8iO1yLka8-7" edge="1">
          <mxGeometry relative="1" as="geometry">
            <Array as="points">
              <mxPoint x="570" y="180" />
              <mxPoint x="570" y="180" />
            </Array>
          </mxGeometry>
        </mxCell>
        <mxCell id="0OWH2VblTp7emqvLC9ex-6" value="" style="edgeStyle=orthogonalEdgeStyle;rounded=0;orthogonalLoop=1;jettySize=auto;html=1;" parent="1" source="G0kwRpXOu8s8iO1yLka8-5" target="G0kwRpXOu8s8iO1yLka8-24" edge="1">
          <mxGeometry relative="1" as="geometry" />
        </mxCell>
        <mxCell id="G0kwRpXOu8s8iO1yLka8-5" value="" style="sketch=0;points=[[0,0,0],[0.25,0,0],[0.5,0,0],[0.75,0,0],[1,0,0],[0,1,0],[0.25,1,0],[0.5,1,0],[0.75,1,0],[1,1,0],[0,0.25,0],[0,0.5,0],[0,0.75,0],[1,0.25,0],[1,0.5,0],[1,0.75,0]];points=[[0,0,0],[0.25,0,0],[0.5,0,0],[0.75,0,0],[1,0,0],[0,1,0],[0.25,1,0],[0.5,1,0],[0.75,1,0],[1,1,0],[0,0.25,0],[0,0.5,0],[0,0.75,0],[1,0.25,0],[1,0.5,0],[1,0.75,0]];outlineConnect=0;fontColor=#232F3E;gradientColor=#F34482;gradientDirection=north;fillColor=#BC1356;strokeColor=#ffffff;dashed=0;verticalLabelPosition=bottom;verticalAlign=top;align=center;html=1;fontSize=12;fontStyle=0;aspect=fixed;shape=mxgraph.aws4.resourceIcon;resIcon=mxgraph.aws4.cloudwatch_2;" parent="1" vertex="1">
          <mxGeometry x="289" y="142.67" width="78" height="78" as="geometry" />
        </mxCell>
        <mxCell id="G0kwRpXOu8s8iO1yLka8-6" value="" style="sketch=0;points=[[0,0,0],[0.25,0,0],[0.5,0,0],[0.75,0,0],[1,0,0],[0,1,0],[0.25,1,0],[0.5,1,0],[0.75,1,0],[1,1,0],[0,0.25,0],[0,0.5,0],[0,0.75,0],[1,0.25,0],[1,0.5,0],[1,0.75,0]];outlineConnect=0;fontColor=#232F3E;gradientColor=#FF4F8B;gradientDirection=north;fillColor=#BC1356;strokeColor=#ffffff;dashed=0;verticalLabelPosition=bottom;verticalAlign=top;align=center;html=1;fontSize=12;fontStyle=0;aspect=fixed;shape=mxgraph.aws4.resourceIcon;resIcon=mxgraph.aws4.sns;" parent="1" vertex="1">
          <mxGeometry x="289.5" y="-8" width="78" height="78" as="geometry" />
        </mxCell>
        <mxCell id="iP4ohvnQGioM_d5yrYZg-47" value="" style="edgeStyle=orthogonalEdgeStyle;rounded=0;orthogonalLoop=1;jettySize=auto;html=1;" parent="1" source="G0kwRpXOu8s8iO1yLka8-7" target="G0kwRpXOu8s8iO1yLka8-8" edge="1">
          <mxGeometry relative="1" as="geometry" />
        </mxCell>
        <mxCell id="0OWH2VblTp7emqvLC9ex-16" value="" style="edgeStyle=orthogonalEdgeStyle;rounded=0;orthogonalLoop=1;jettySize=auto;html=1;" parent="1" source="G0kwRpXOu8s8iO1yLka8-7" target="iP4ohvnQGioM_d5yrYZg-29" edge="1">
          <mxGeometry relative="1" as="geometry">
            <Array as="points">
              <mxPoint x="637" y="110" />
              <mxPoint x="637" y="110" />
            </Array>
          </mxGeometry>
        </mxCell>
        <mxCell id="G0kwRpXOu8s8iO1yLka8-7" value="Lambda to Glue ETL" style="sketch=0;outlineConnect=0;fontColor=#232F3E;gradientColor=none;strokeColor=#ffffff;fillColor=#232F3E;dashed=0;verticalLabelPosition=middle;verticalAlign=bottom;align=center;html=1;whiteSpace=wrap;fontSize=10;fontStyle=1;spacing=3;shape=mxgraph.aws4.productIcon;prIcon=mxgraph.aws4.lambda;" parent="1" vertex="1">
          <mxGeometry x="600" y="142.67" width="74" height="100" as="geometry" />
        </mxCell>
        <mxCell id="iP4ohvnQGioM_d5yrYZg-12" style="edgeStyle=orthogonalEdgeStyle;rounded=0;orthogonalLoop=1;jettySize=auto;html=1;" parent="1" source="G0kwRpXOu8s8iO1yLka8-8" target="YhI0w7dcuorTJJCVT4WH-12" edge="1">
          <mxGeometry relative="1" as="geometry">
            <mxPoint x="800" y="150" as="sourcePoint" />
            <Array as="points">
              <mxPoint x="800" y="110" />
            </Array>
          </mxGeometry>
        </mxCell>
        <mxCell id="G0kwRpXOu8s8iO1yLka8-9" value="" style="sketch=0;points=[[0,0,0],[0.25,0,0],[0.5,0,0],[0.75,0,0],[1,0,0],[0,1,0],[0.25,1,0],[0.5,1,0],[0.75,1,0],[1,1,0],[0,0.25,0],[0,0.5,0],[0,0.75,0],[1,0.25,0],[1,0.5,0],[1,0.75,0]];outlineConnect=0;fontColor=#232F3E;gradientColor=#FF4F8B;gradientDirection=north;fillColor=#BC1356;strokeColor=#ffffff;dashed=0;verticalLabelPosition=bottom;verticalAlign=top;align=center;html=1;fontSize=12;fontStyle=0;aspect=fixed;shape=mxgraph.aws4.resourceIcon;resIcon=mxgraph.aws4.sns;" parent="1" vertex="1">
          <mxGeometry x="596" width="70" height="70" as="geometry" />
        </mxCell>
        <mxCell id="YhI0w7dcuorTJJCVT4WH-2" value="" style="edgeStyle=orthogonalEdgeStyle;rounded=0;orthogonalLoop=1;jettySize=auto;html=1;" parent="1" source="G0kwRpXOu8s8iO1yLka8-11" target="YhI0w7dcuorTJJCVT4WH-1" edge="1">
          <mxGeometry relative="1" as="geometry" />
        </mxCell>
        <mxCell id="G0kwRpXOu8s8iO1yLka8-11" value="" style="sketch=0;outlineConnect=0;fontColor=#232F3E;gradientColor=none;fillColor=#4D27AA;strokeColor=none;dashed=0;verticalLabelPosition=bottom;verticalAlign=top;align=center;html=1;fontSize=12;fontStyle=0;aspect=fixed;pointerEvents=1;shape=mxgraph.aws4.glue_data_catalog;" parent="1" vertex="1">
          <mxGeometry x="453" y="560" width="72" height="78" as="geometry" />
        </mxCell>
        <mxCell id="G0kwRpXOu8s8iO1yLka8-18" value="Glue crawler-Raw" style="text;html=1;strokeColor=none;fillColor=none;align=center;verticalAlign=middle;whiteSpace=wrap;rounded=0;" parent="1" vertex="1">
          <mxGeometry x="451.5" y="384" width="71" height="40" as="geometry" />
        </mxCell>
        <mxCell id="G0kwRpXOu8s8iO1yLka8-19" value="S3 Bucket" style="text;html=1;strokeColor=none;fillColor=none;align=center;verticalAlign=middle;whiteSpace=wrap;rounded=0;" parent="1" vertex="1">
          <mxGeometry x="170" y="394" width="60" height="30" as="geometry" />
        </mxCell>
        <mxCell id="G0kwRpXOu8s8iO1yLka8-23" value="Glue ETL" style="text;html=1;strokeColor=none;fillColor=none;align=center;verticalAlign=middle;whiteSpace=wrap;rounded=0;" parent="1" vertex="1">
          <mxGeometry x="772.82" y="230" width="69" height="30" as="geometry" />
        </mxCell>
        <mxCell id="G0kwRpXOu8s8iO1yLka8-24" value="Amazon SNS" style="text;html=1;strokeColor=none;fillColor=none;align=center;verticalAlign=middle;whiteSpace=wrap;rounded=0;" parent="1" vertex="1">
          <mxGeometry x="293.5" y="70" width="69" height="30" as="geometry" />
        </mxCell>
        <mxCell id="G0kwRpXOu8s8iO1yLka8-25" value="Cloud Watch" style="text;html=1;strokeColor=none;fillColor=none;align=center;verticalAlign=middle;whiteSpace=wrap;rounded=0;" parent="1" vertex="1">
          <mxGeometry x="454.5" y="220.67" width="69" height="30" as="geometry" />
        </mxCell>
        <mxCell id="G0kwRpXOu8s8iO1yLka8-51" value="&lt;b&gt;SNS gets triggered only when glue crawler lambda gets success&lt;/b&gt;" style="text;html=1;strokeColor=none;fillColor=none;align=center;verticalAlign=middle;whiteSpace=wrap;rounded=0;" parent="1" vertex="1">
          <mxGeometry x="117.31" y="70" width="172.69" as="geometry" />
        </mxCell>
        <mxCell id="G0kwRpXOu8s8iO1yLka8-52" value="&lt;b&gt;SNS gets triggered only when glue ETL lambda gets success&lt;/b&gt;" style="text;whiteSpace=wrap;html=1;align=center;" parent="1" vertex="1">
          <mxGeometry x="680" y="1" width="170" height="60" as="geometry" />
        </mxCell>
        <mxCell id="iP4ohvnQGioM_d5yrYZg-38" style="edgeStyle=orthogonalEdgeStyle;rounded=0;orthogonalLoop=1;jettySize=auto;html=1;entryX=0.5;entryY=1;entryDx=0;entryDy=0;" parent="1" source="YhI0w7dcuorTJJCVT4WH-1" target="G0kwRpXOu8s8iO1yLka8-19" edge="1">
          <mxGeometry relative="1" as="geometry" />
        </mxCell>
        <mxCell id="YhI0w7dcuorTJJCVT4WH-1" value="Amazon Athena" style="sketch=0;outlineConnect=0;fontColor=#232F3E;gradientColor=none;strokeColor=#ffffff;fillColor=#232F3E;dashed=0;verticalLabelPosition=middle;verticalAlign=bottom;align=center;html=1;whiteSpace=wrap;fontSize=10;fontStyle=1;spacing=3;shape=mxgraph.aws4.productIcon;prIcon=mxgraph.aws4.athena;" parent="1" vertex="1">
          <mxGeometry x="237.31" y="545" width="80" height="110" as="geometry" />
        </mxCell>
        <mxCell id="iP4ohvnQGioM_d5yrYZg-17" value="" style="edgeStyle=orthogonalEdgeStyle;rounded=0;orthogonalLoop=1;jettySize=auto;html=1;" parent="1" source="YhI0w7dcuorTJJCVT4WH-5" target="G0kwRpXOu8s8iO1yLka8-10" edge="1">
          <mxGeometry relative="1" as="geometry" />
        </mxCell>
        <mxCell id="YhI0w7dcuorTJJCVT4WH-5" value="Amazon Athena" style="sketch=0;outlineConnect=0;fontColor=#232F3E;gradientColor=none;strokeColor=#ffffff;fillColor=#232F3E;dashed=0;verticalLabelPosition=middle;verticalAlign=bottom;align=center;html=1;whiteSpace=wrap;fontSize=10;fontStyle=1;spacing=3;shape=mxgraph.aws4.productIcon;prIcon=mxgraph.aws4.athena;" parent="1" vertex="1">
          <mxGeometry x="917.5" y="230" width="80" height="100" as="geometry" />
        </mxCell>
        <mxCell id="YhI0w7dcuorTJJCVT4WH-12" value="" style="sketch=0;outlineConnect=0;fontColor=#232F3E;gradientColor=none;fillColor=#4D27AA;strokeColor=none;dashed=0;verticalLabelPosition=bottom;verticalAlign=top;align=center;html=1;fontSize=12;fontStyle=0;aspect=fixed;pointerEvents=1;shape=mxgraph.aws4.glue_data_catalog;" parent="1" vertex="1">
          <mxGeometry x="920" y="50" width="72" height="78" as="geometry" />
        </mxCell>
        <mxCell id="YhI0w7dcuorTJJCVT4WH-17" value="Glue data catalog raw-tables" style="text;html=1;strokeColor=none;fillColor=none;align=center;verticalAlign=middle;whiteSpace=wrap;rounded=0;" parent="1" vertex="1">
          <mxGeometry x="462" y="655" width="69" height="45" as="geometry" />
        </mxCell>
        <mxCell id="YhI0w7dcuorTJJCVT4WH-25" value="" style="endArrow=classic;html=1;rounded=0;" parent="1" source="YhI0w7dcuorTJJCVT4WH-12" target="G0kwRpXOu8s8iO1yLka8-15" edge="1">
          <mxGeometry width="50" height="50" relative="1" as="geometry">
            <mxPoint x="787" y="148" as="sourcePoint" />
            <mxPoint x="810" y="220" as="targetPoint" />
          </mxGeometry>
        </mxCell>
        <mxCell id="iP4ohvnQGioM_d5yrYZg-13" value="" style="edgeStyle=orthogonalEdgeStyle;rounded=0;orthogonalLoop=1;jettySize=auto;html=1;" parent="1" source="G0kwRpXOu8s8iO1yLka8-15" target="YhI0w7dcuorTJJCVT4WH-5" edge="1">
          <mxGeometry relative="1" as="geometry" />
        </mxCell>
        <mxCell id="G0kwRpXOu8s8iO1yLka8-15" value="Glue data catalog raw-tables" style="text;html=1;strokeColor=none;fillColor=none;align=center;verticalAlign=middle;whiteSpace=wrap;rounded=0;" parent="1" vertex="1">
          <mxGeometry x="923" y="128" width="69" height="42.5" as="geometry" />
        </mxCell>
        <mxCell id="G0kwRpXOu8s8iO1yLka8-10" value="" style="sketch=0;outlineConnect=0;fontColor=#232F3E;gradientColor=none;fillColor=#3F8624;strokeColor=none;dashed=0;verticalLabelPosition=bottom;verticalAlign=top;align=center;html=1;fontSize=12;fontStyle=0;aspect=fixed;pointerEvents=1;shape=mxgraph.aws4.bucket;" parent="1" vertex="1">
          <mxGeometry x="923.85" y="410" width="67.31" height="70" as="geometry" />
        </mxCell>
        <mxCell id="iP4ohvnQGioM_d5yrYZg-19" value="" style="endArrow=classic;html=1;rounded=0;" parent="1" source="G0kwRpXOu8s8iO1yLka8-10" target="G0kwRpXOu8s8iO1yLka8-27" edge="1">
          <mxGeometry width="50" height="50" relative="1" as="geometry">
            <mxPoint x="784" y="460" as="sourcePoint" />
            <mxPoint x="786" y="520" as="targetPoint" />
          </mxGeometry>
        </mxCell>
        <mxCell id="G0kwRpXOu8s8iO1yLka8-27" value="S3 Silver Bucket" style="text;html=1;strokeColor=none;fillColor=none;align=center;verticalAlign=middle;whiteSpace=wrap;rounded=0;" parent="1" vertex="1">
          <mxGeometry x="908.5" y="484" width="110" height="30" as="geometry" />
        </mxCell>
        <mxCell id="iP4ohvnQGioM_d5yrYZg-29" value="Amazon SNS" style="text;html=1;strokeColor=none;fillColor=none;align=center;verticalAlign=middle;whiteSpace=wrap;rounded=0;" parent="1" vertex="1">
          <mxGeometry x="596.5" y="70" width="69" height="30" as="geometry" />
        </mxCell>
        <mxCell id="iP4ohvnQGioM_d5yrYZg-32" value="" style="edgeStyle=orthogonalEdgeStyle;rounded=0;orthogonalLoop=1;jettySize=auto;html=1;" parent="1" target="G0kwRpXOu8s8iO1yLka8-8" edge="1">
          <mxGeometry relative="1" as="geometry">
            <mxPoint x="800" y="150" as="sourcePoint" />
            <mxPoint x="921" y="110" as="targetPoint" />
            <Array as="points" />
          </mxGeometry>
        </mxCell>
        <mxCell id="G0kwRpXOu8s8iO1yLka8-8" value="" style="sketch=0;points=[[0,0,0],[0.25,0,0],[0.5,0,0],[0.75,0,0],[1,0,0],[0,1,0],[0.25,1,0],[0.5,1,0],[0.75,1,0],[1,1,0],[0,0.25,0],[0,0.5,0],[0,0.75,0],[1,0.25,0],[1,0.5,0],[1,0.75,0]];outlineConnect=0;fontColor=#232F3E;gradientColor=#945DF2;gradientDirection=north;fillColor=#5A30B5;strokeColor=#ffffff;dashed=0;verticalLabelPosition=bottom;verticalAlign=top;align=center;html=1;fontSize=12;fontStyle=0;aspect=fixed;shape=mxgraph.aws4.resourceIcon;resIcon=mxgraph.aws4.glue;" parent="1" vertex="1">
          <mxGeometry x="770" y="155.35" width="74.65" height="74.65" as="geometry" />
        </mxCell>
        <mxCell id="0OWH2VblTp7emqvLC9ex-1" value="" style="sketch=0;points=[[0,0,0],[0.25,0,0],[0.5,0,0],[0.75,0,0],[1,0,0],[0,1,0],[0.25,1,0],[0.5,1,0],[0.75,1,0],[1,1,0],[0,0.25,0],[0,0.5,0],[0,0.75,0],[1,0.25,0],[1,0.5,0],[1,0.75,0]];points=[[0,0,0],[0.25,0,0],[0.5,0,0],[0.75,0,0],[1,0,0],[0,1,0],[0.25,1,0],[0.5,1,0],[0.75,1,0],[1,1,0],[0,0.25,0],[0,0.5,0],[0,0.75,0],[1,0.25,0],[1,0.5,0],[1,0.75,0]];outlineConnect=0;fontColor=#232F3E;gradientColor=#F34482;gradientDirection=north;fillColor=#BC1356;strokeColor=#ffffff;dashed=0;verticalLabelPosition=bottom;verticalAlign=top;align=center;html=1;fontSize=12;fontStyle=0;aspect=fixed;shape=mxgraph.aws4.resourceIcon;resIcon=mxgraph.aws4.cloudwatch_2;" parent="1" vertex="1">
          <mxGeometry x="450" y="142.67" width="78" height="78" as="geometry" />
        </mxCell>
        <mxCell id="0OWH2VblTp7emqvLC9ex-3" value="Cloud Watch" style="text;html=1;strokeColor=none;fillColor=none;align=center;verticalAlign=middle;whiteSpace=wrap;rounded=0;" parent="1" vertex="1">
          <mxGeometry x="299" y="220.67" width="69" height="30" as="geometry" />
        </mxCell>
        <mxCell id="0OWH2VblTp7emqvLC9ex-7" value="" style="endArrow=classic;html=1;rounded=0;exitX=0.5;exitY=1;exitDx=0;exitDy=0;" parent="1" source="G0kwRpXOu8s8iO1yLka8-18" target="G0kwRpXOu8s8iO1yLka8-11" edge="1">
          <mxGeometry width="50" height="50" relative="1" as="geometry">
            <mxPoint x="560" y="310" as="sourcePoint" />
            <mxPoint x="610" y="260" as="targetPoint" />
            <Array as="points" />
          </mxGeometry>
        </mxCell>
        <mxCell id="0OWH2VblTp7emqvLC9ex-9" value="" style="endArrow=classic;html=1;rounded=0;" parent="1" edge="1">
          <mxGeometry width="50" height="50" relative="1" as="geometry">
            <mxPoint x="369" y="358.41" as="sourcePoint" />
            <mxPoint x="442" y="358.41" as="targetPoint" />
          </mxGeometry>
        </mxCell>
        <mxCell id="2wditf0VLGrR4a_Zes8d-1" value="Lambda to trigger Redshift" style="sketch=0;outlineConnect=0;fontColor=#232F3E;gradientColor=none;strokeColor=#ffffff;fillColor=#232F3E;dashed=0;verticalLabelPosition=middle;verticalAlign=bottom;align=center;html=1;whiteSpace=wrap;fontSize=10;fontStyle=1;spacing=3;shape=mxgraph.aws4.productIcon;prIcon=mxgraph.aws4.lambda;" vertex="1" parent="1">
          <mxGeometry x="1090" y="401.5" width="80" height="109" as="geometry" />
        </mxCell>
        <mxCell id="2wditf0VLGrR4a_Zes8d-2" value="Amazon Redshift" style="sketch=0;outlineConnect=0;fontColor=#232F3E;gradientColor=none;strokeColor=#ffffff;fillColor=#232F3E;dashed=0;verticalLabelPosition=middle;verticalAlign=bottom;align=center;html=1;whiteSpace=wrap;fontSize=10;fontStyle=1;spacing=3;shape=mxgraph.aws4.productIcon;prIcon=mxgraph.aws4.redshift;" vertex="1" parent="1">
          <mxGeometry x="1290" y="394" width="80" height="110" as="geometry" />
        </mxCell>
        <mxCell id="2wditf0VLGrR4a_Zes8d-5" value="" style="endArrow=classic;html=1;rounded=0;" edge="1" parent="1">
          <mxGeometry width="50" height="50" relative="1" as="geometry">
            <mxPoint x="997.5" y="440" as="sourcePoint" />
            <mxPoint x="1077.5" y="440" as="targetPoint" />
          </mxGeometry>
        </mxCell>
        <mxCell id="2wditf0VLGrR4a_Zes8d-6" value="" style="endArrow=classic;html=1;rounded=0;" edge="1" parent="1">
          <mxGeometry width="50" height="50" relative="1" as="geometry">
            <mxPoint x="1190" y="440" as="sourcePoint" />
            <mxPoint x="1270" y="440" as="targetPoint" />
          </mxGeometry>
        </mxCell>
        <mxCell id="2wditf0VLGrR4a_Zes8d-10" value="Amazon QuickSight" style="sketch=0;outlineConnect=0;fontColor=#232F3E;gradientColor=none;strokeColor=#ffffff;fillColor=#232F3E;dashed=0;verticalLabelPosition=middle;verticalAlign=bottom;align=center;html=1;whiteSpace=wrap;fontSize=10;fontStyle=1;spacing=3;shape=mxgraph.aws4.productIcon;prIcon=mxgraph.aws4.quicksight;" vertex="1" parent="1">
          <mxGeometry x="1290" y="600" width="80" height="110" as="geometry" />
        </mxCell>
        <mxCell id="2wditf0VLGrR4a_Zes8d-11" value="" style="edgeStyle=orthogonalEdgeStyle;rounded=0;orthogonalLoop=1;jettySize=auto;html=1;" edge="1" parent="1">
          <mxGeometry relative="1" as="geometry">
            <mxPoint x="1329.29" y="504" as="sourcePoint" />
            <mxPoint x="1329.29" y="584" as="targetPoint" />
          </mxGeometry>
        </mxCell>
      </root>
    </mxGraphModel>
  </diagram>
</mxfile>
